<?xml version="1.0" standalone="no"?>
<!DOCTYPE svg PUBLIC "-//W3C//DTD SVG 20010904//EN"
 "http://www.w3.org/TR/2001/REC-SVG-20010904/DTD/svg10.dtd">
<svg version="1.0" xmlns="http://www.w3.org/2000/svg"
 width="512.000000pt" height="512.000000pt" viewBox="0 0 512.000000 512.000000"
 preserveAspectRatio="xMidYMid meet">
<metadata>
Created by potrace 1.11, written by Peter Selinger 2001-2013
</metadata>
<g transform="translate(0.000000,512.000000) scale(0.100000,-0.100000)"
fill="#000000" stroke="none">
<path d="M726 4144 c-189 -46 -346 -205 -391 -396 -22 -95 -22 -2282 0 -2377
46 -193 204 -350 397 -396 94 -22 3585 -22 3668 0 187 50 335 198 385 385 22
84 22 2294 0 2389 -46 193 -204 350 -397 396 -92 22 -3572 21 -3662 -1z m3629
-323 c51 -23 101 -79 114 -128 17 -58 15 -2213 -1 -2267 -16 -53 -81 -118
-134 -134 -32 -9 -434 -12 -1783 -12 -1552 0 -1746 2 -1779 16 -49 20 -90 60
-113 109 -18 38 -19 91 -19 1153 0 1218 -3 1150 58 1216 15 16 45 37 67 47 38
18 108 19 1795 19 1676 0 1757 -1 1795 -19z"/>
<path d="M1375 3346 c-90 -39 -123 -165 -64 -240 11 -14 149 -124 307 -244
158 -120 310 -236 339 -257 28 -22 52 -42 52 -45 0 -3 -24 -23 -52 -45 -29
-21 -181 -137 -339 -257 -158 -120 -296 -230 -307 -244 -88 -111 20 -277 163
-250 24 5 157 100 437 312 222 169 423 320 446 338 80 60 105 149 62 225 -13
22 -70 74 -152 136 -509 387 -751 567 -773 575 -35 14 -83 12 -119 -4z"/>
<path d="M2620 2058 c-57 -39 -75 -72 -75 -138 0 -66 18 -99 75 -137 l33 -23
537 0 537 0 34 23 c52 35 79 82 79 137 0 55 -27 102 -79 137 l-34 23 -537 0
-537 0 -33 -22z"/>
</g>
</svg>
